<?xml version="1.0" encoding="utf-8"?>
<!-- Generator: Adobe Illustrator 23.1.0, SVG Export Plug-In . SVG Version: 6.00 Build 0)  -->
<svg version="1.1" id="hs-logo" xmlns="http://www.w3.org/2000/svg" xmlns:xlink="http://www.w3.org/1999/xlink" x="0px" y="0px"
	 viewBox="0 0 48 48" style="enable-background:new 0 0 48 48;" xml:space="preserve">
<style type="text/css">
	.st0{fill-rule:evenodd;clip-rule:evenodd;fill:#593810;}
	.st1{fill-rule:evenodd;clip-rule:evenodd;fill:#FF9C00;}
	.st2{fill-rule:evenodd;clip-rule:evenodd;fill:#39CCFF;}
	.st3{fill:#F9F9F9;}
	.st4{fill-rule:evenodd;clip-rule:evenodd;fill:none;}
</style>
<path class="st0" d="M24,11.2c7,0,12.8,5.8,12.8,12.8S31,36.8,24,36.8S11.2,31,11.2,24S17,11.2,24,11.2"/>
<path class="st1" d="M37.4,29.2L46,24l-8.6-5.2c-0.4-1.2-1-2-1.6-3l2-5.4l-5.4,2c-1-0.6-2-1.2-3-1.6L24,2l-5.2,8.6
	c-1.2,0.4-2,1-3,1.6l-5.4-2l2,5.4c-0.6,1-1.2,2-1.6,3L2,24l8.6,5.2c0.4,1.2,1,2,1.6,3l-2,5.4l5.4-2c1,0.6,2,1.2,3,1.6L24,46l5.2-8.6
	c1.2-0.4,2-1,3-1.6l5.4,2l-2-5.4C36.4,31.4,37,30.2,37.4,29.2 M24,35.8c-6.6,0-11.8-5.2-11.8-11.8S17.6,12.2,24,12.2
	c6.6,0,11.8,5.4,11.8,11.8C35.8,30.6,30.6,35.8,24,35.8"/>
<path class="st2" d="M32,23.6c0,0.2-0.2,0.4-0.4,0.6c-0.2,0.4,0.2,0.4,0.2,0.6c0,0.4,0,1-0.2,1.4c0,0.4-0.2,0.8-0.4,1.2
	s-0.4,0.6-0.6,1c0,0.4-0.2,0.8-0.4,1.2c-0.4,0.4-0.6,0.6-1,0.8s-0.4,0.6-0.8,1L27.2,32c-0.4,0.2-0.8,0.2-1.2,0.4s-1,0.2-1.4,0.4
	c-0.4,0-1,0-1.4,0.2c-0.4,0-0.8,0.4-1.2,0.4S21.2,33,20.8,33s-0.8-0.2-1.2-0.4s-0.8-0.2-1.2-0.4c-0.4,0-0.8-0.4-1-0.8
	c0-0.4,1.2-0.4,1.6-0.6c0.6-0.4,1.4-0.2,2-0.6c0.2-0.2,0.4-0.4,0.6-0.4c0.2-0.2,0.4-0.2,0.8-0.2c0.4-0.2,1-0.2,1.6-0.4l1.2-0.6
	c0.4-0.2,0.6-0.4,1-0.8c0.4-0.2,0.6-0.6,1-1l0.6-1.2c0.4-0.4,0.8-0.4,0.6-0.8s-0.2-1-0.2-1.4c0-1,0.2-2-0.4-2.8
	c-0.4-0.4-0.6-0.8-0.8-1.2c-0.2-0.2-0.2-0.4-0.2-0.6c0-0.4,0.2-0.4-0.2-0.4c-0.2,0-0.4,0.2-0.6,0.2h-0.8c-0.6,0-1.2,0-1.6,0.2
	s-1,0.4-1.2,0.6c-0.4,0.2-0.6,0.6-1,0.8c-0.2,0-0.4,0.2-0.6,0.4c0,0.2-0.2,0.4-0.2,0.6c-0.2,0.4-0.2,1,0,1.6c0.2,0.8,0.8,2,1.8,1.6
	s-0.8-1.8,0-2.2c0.4-0.2,1-0.2,1.4,0c0.6,0,1,0.2,1.4,0.4s0.2,0.8,0.4,1.2c0.4,0.4,0.4,0.8,0.4,1.4c0,1-0.6,1.8-1.4,2.2
	c-0.4,0.2-1,0-1.4,0.2S22.4,28,22,28c-0.2,0-0.4-0.2-0.6-0.2h-0.6c-0.4,0-0.6-0.6-1-0.6c0-0.4-0.6-0.8-0.8-1c-0.4-0.4-0.6-0.8-1-1.2
	s-0.6-0.8-0.8-1.2s0-0.8-0.2-1.2c0-0.2-0.2-0.4-0.2-0.6v-0.8c0-0.4-0.2-0.8-0.2-1.2s0-0.4,0.4-0.4c0.2-0.2,0.4-0.4,0.6-0.4
	c-0.2-0.8,0-1,0.4-1.4c0-0.2,0.2-0.4,0.4-0.6s0.2-0.4,0.4-0.4c0.4-0.4,0.8-0.6,1.2-1c0.8-0.6,1.6-1.2,2.8-0.8
	c0.6,0.2,0.8-0.2,1.2-0.2s0.8,0.4,1.2,0.4c0.4,0.2,0.8,0.2,1.2,0.4s1,0.4,1.4,0.6c1,0.4,1.2,1.2,1.8,1.8c0.4,0.6,1.6,1.4,1.2,2.2
	c0,0.2,0,0.6,0.2,0.8c0.2,0.4,0.2,0.6,0.2,1C31.4,22.6,32,23.2,32,23.6"/>
<g>
	<g>
		<polygon points="11.1,44.4 11.1,43.2 11.5,43.2 11.5,41.3 10.5,41.3 10.5,43.2 10.9,43.2 10.9,44.4 7.7,44.4 7.7,43.2 8.1,43.2 
			8.1,39.1 7.7,39.1 7.7,37.9 10.9,37.9 10.9,39.1 10.5,39.1 10.5,40 11.5,40 11.5,39.1 11.1,39.1 11.1,37.9 14.3,37.9 14.3,39.1 
			13.9,39.1 13.9,43.2 14.3,43.2 14.3,44.4 		"/>
		<path class="st3" d="M14,38.2v0.7h-0.4v4.6H14v0.7h-2.7v-0.7h0.4V41h-1.5v2.4h0.4v0.7H7.9v-0.7h0.4v-4.6H7.9v-0.7h2.7v0.7h-0.4
			v1.4h1.5v-1.4h-0.4v-0.7H14 M14.5,37.7H14h-2.7h-0.2h-0.5H7.9H7.4v0.5v0.7v0.5h0.4V43H7.4v0.5v0.7v0.5h0.5h2.7h0.5h0.2H14h0.5
			v-0.5v-0.7V43h-0.4v-3.6h0.4v-0.5v-0.7V37.7L14.5,37.7z M10.8,39.4h0.4v0.4h-0.5v-0.4H10.8L10.8,39.4z M10.7,41.5h0.5V43h-0.4
			h-0.1V41.5L10.7,41.5z"/>
	</g>
	<g>
		<path d="M17.1,44.5c-1.1,0-2.1-0.5-2.7-1l-0.2-0.1l1.4-1.9l0.2,0.2c0.6,0.7,1.4,1.4,2.2,1.4c0.3,0,0.3-0.2,0.3-0.2
			c0-0.2-0.6-0.4-1-0.6c-1-0.4-2.3-0.8-2.3-2.2c0-1.2,1.1-2.2,2.5-2.2c0.4,0,1,0.1,1.4,0.4l0.3-0.4l1,0.6l-1.3,1.9
			c0.6,0.4,1.2,0.9,1.2,1.9C19.9,43.6,18.4,44.5,17.1,44.5z M16.7,39.2c-0.1,0-0.2,0.1-0.2,0.1c0,0.2,0.5,0.4,1,0.5
			c0.3,0.1,0.6,0.2,0.9,0.3l-0.1-0.1C17.9,39.7,17.3,39.2,16.7,39.2z"/>
		<path class="st3" d="M17.3,38.1c0.5,0,1.1,0.2,1.5,0.5l0.3-0.3l0.5,0.4l-1,1.5c-0.5-0.4-1.2-1.1-1.9-1.1c-0.2,0-0.5,0.2-0.5,0.4
			c0,1,3.4,0.6,3.4,2.9c0,1.1-1.3,2-2.6,2c-1,0-1.8-0.4-2.6-1l1-1.5c0.6,0.6,1.4,1.5,2.4,1.5c0.3,0,0.5-0.1,0.5-0.5
			c0-0.9-3.4-0.8-3.4-2.8C15.1,38.9,16.1,38.1,17.3,38.1 M19,37.5l-0.3,0.4c-0.4-0.2-0.8-0.3-1.4-0.3c-1.6,0-2.8,1-2.8,2.4
			c0,0.6,0.2,1.1,0.6,1.5l-0.1,0.1l-1,1.5l-0.3,0.4l0.4,0.3c0.7,0.5,1.7,1.1,2.9,1.1c1.5,0,3.1-0.9,3.1-2.5c0-1-0.5-1.6-1.1-2l1-1.5
			l0.3-0.4l-0.4-0.3l-0.5-0.4L19,37.5L19,37.5z M17.8,42.8c-0.3,0-0.6-0.2-0.9-0.4c0.1,0,0.1,0,0.2,0.1
			C17.3,42.6,17.6,42.7,17.8,42.8L17.8,42.8z"/>
	</g>
	<g>
		<path d="M20.1,44.4v-1.2h0.4v-4.1h-0.4v-1.2h3.3c1.8,0,2.1,0.8,2.1,1.5c0,0.6-0.3,1-0.6,1.2c0.6,0.3,1,0.9,1,1.7
			c0,1-0.4,2.1-2.5,2.1H20.1z M22.8,42.9c0,0.3,0,0.3,0.2,0.3c0.4,0,0.6-0.2,0.6-1c0-0.8-0.3-1-0.7-1h-0.1V42.9z M22.8,40.1
			c0.4,0,0.5-0.2,0.5-0.5c0-0.3-0.1-0.4-0.5-0.5V40.1z"/>
		<path class="st3" d="M23.4,38.2c0.8,0,1.9,0.2,1.9,1.3c0,0.8-0.5,1.1-1.3,1.2v0c0.9,0.1,1.7,0.7,1.7,1.7c0,1.4-1,1.8-2.2,1.8h-3.1
			v-0.7h0.4v-4.6h-0.4v-0.7H23.4 M22.6,40.3c0.5,0,1-0.1,1-0.7c0-0.6-0.4-0.7-1-0.7V40.3 M23,43.5c0.8,0,0.8-0.7,0.8-1.3
			c0-0.8-0.3-1.2-1-1.2h-0.3v1.9C22.6,43.4,22.7,43.5,23,43.5 M23.4,37.7h-3h-0.5v0.5v0.7v0.5h0.4V43h-0.4v0.5v0.7v0.5h0.5h3.1
			c2.4,0,2.7-1.5,2.7-2.3c0-0.7-0.3-1.3-0.8-1.7c0.3-0.2,0.4-0.6,0.4-1.2C25.8,38.8,25.5,37.7,23.4,37.7L23.4,37.7z M23.1,43
			C23.1,43,23.1,43,23.1,43l0-1.5c0.2,0,0.3,0.2,0.3,0.7C23.3,42.9,23.2,43,23.1,43L23.1,43z"/>
	</g>
	<g>
		<path d="M28.9,44.5c-1.8,0-3-1.3-3-3.1c0-2,1.6-3.6,3.7-3.6c0.5,0,1,0.2,1.5,0.5l0.4-0.3l0.6,1l-2,1.3h1.3c0.1,0,0.1,0,0.2-0.1
			l0.2-0.1l0.2,0.2l0.3,0.6l-0.2,0.1c-0.1,0.1-0.1,0.1-0.1,0.3v3h-0.9l-0.3-0.5C30.3,44.3,29.6,44.5,28.9,44.5z M29.1,39.1
			c-0.7,0-0.9,0.9-0.9,1.6c0,1.4,0.6,2.1,1.7,2.2v-1.4h-1v-1.2h0.9l-0.4-0.7l0.1-0.1c0,0,0-0.1,0-0.2C29.5,39.1,29.2,39.1,29.1,39.1
			z"/>
		<path class="st3" d="M29.6,38.1c0.5,0,1.1,0.3,1.5,0.6l0.3-0.2l0.4,0.5l-1.9,1.2l-0.3-0.5c0.1-0.1,0.1-0.2,0.1-0.3
			c0-0.3-0.3-0.5-0.6-0.5c-1.1,0-1.1,1.4-1.1,1.8c0,1.8,0.9,2.5,2.2,2.5v-1.9h-1v-0.7h2.4c0.1,0,0.3-0.1,0.4-0.1l0.2,0.4
			c-0.2,0.1-0.2,0.2-0.2,0.5v2.8h-0.5L31,43.5c-0.6,0.4-1.3,0.7-2.1,0.7c-1.7,0-2.8-1.1-2.8-2.9C26.1,39.5,27.6,38.1,29.6,38.1
			 M29.6,37.6c-2.2,0-4,1.7-4,3.8c0,2,1.3,3.4,3.3,3.4c0.7,0,1.3-0.2,2-0.5l0.1,0.2l0.1,0.2h0.3h0.5h0.5v-0.5v-2.8c0,0,0,0,0,0
			c0,0,0,0,0,0l0.3-0.2l-0.2-0.4l-0.2-0.4l-0.2-0.4L31.7,40l-0.1,0c0,0-0.1,0-0.1,0.1l-0.5,0l1.1-0.7l0.4-0.3l-0.3-0.4l-0.4-0.5
			l-0.3-0.4L31.2,38l-0.1,0C30.6,37.7,30,37.6,29.6,37.6L29.6,37.6z M28.6,41.7c-0.1-0.3-0.1-0.6-0.1-1c0-0.9,0.2-1.3,0.6-1.3
			c0.1,0,0.1,0,0.1,0l-0.3,0.3l0.2,0.3l0.1,0.1l-0.1,0h-0.5v0.5v0.7V41.7L28.6,41.7z M28.6,41.8h0.5h0.5v0.8
			C29.2,42.5,28.9,42.3,28.6,41.8L28.6,41.8z"/>
	</g>
	<g>
		<polygon points="35.9,44.4 35.9,43.2 36.3,43.2 36.3,41.3 35.3,41.3 35.3,43.2 35.7,43.2 35.7,44.4 32.5,44.4 32.5,43.2 
			32.9,43.2 32.9,39.1 32.5,39.1 32.5,37.9 35.7,37.9 35.7,39.1 35.3,39.1 35.3,40 36.3,40 36.3,39.1 35.9,39.1 35.9,37.9 
			39.1,37.9 39.1,39.1 38.7,39.1 38.7,43.2 39.1,43.2 39.1,44.4 		"/>
		<path class="st3" d="M38.9,38.2v0.7h-0.4v4.6h0.4v0.7h-2.7v-0.7h0.4V41h-1.5v2.4h0.4v0.7h-2.7v-0.7h0.4v-4.6h-0.4v-0.7h2.7v0.7
			h-0.4v1.4h1.5v-1.4h-0.4v-0.7H38.9 M39.4,37.7h-0.5h-2.7H36h-0.5h-2.7h-0.5v0.5v0.7v0.5h0.4V43h-0.4v0.5v0.7v0.5h0.5h2.7H36h0.2
			h2.7h0.5v-0.5v-0.7V43h-0.4v-3.6h0.4v-0.5v-0.7V37.7L39.4,37.7z M35.7,39.4h0.4v0.4h-0.5v-0.4H35.7L35.7,39.4z M35.6,41.5h0.5V43
			h-0.4h-0.1V41.5L35.6,41.5z"/>
	</g>
</g>
<rect x="24" y="45.2" class="st4" width="5.6" height="0.7"/>
</svg>
