<svg id="hs-logo" xmlns="http://www.w3.org/2000/svg" viewBox="0 0 48 48"><defs><style>.cls-1{fill:#593810;}.cls-1,.cls-2,.cls-3{fill-rule:evenodd;}.cls-2{fill:#ff9c00;}.cls-3{fill:#39ccff;}.cls-4{fill:#f9f9f9;}</style></defs><title>Artboard 1</title><path class="cls-1" d="M24,11.17A12.8,12.8,0,1,1,11.2,24,12.89,12.89,0,0,1,24,11.17"/><path class="cls-2" d="M37.4,29.17,46,24l-8.6-5.2a14.29,14.29,0,0,0-1.6-3l2-5.4-5.4,2a21.86,21.86,0,0,0-3-1.6L24,2l-5.2,8.6a14.29,14.29,0,0,0-3,1.6l-5.4-2,2,5.4a21.86,21.86,0,0,0-1.6,3L2,24l8.6,5.2a14.29,14.29,0,0,0,1.6,3l-2,5.4,5.4-2a21.86,21.86,0,0,0,3,1.6L24,46l5.2-8.6a14.29,14.29,0,0,0,3-1.6l5.4,2-2-5.4a12.93,12.93,0,0,0,1.8-3.2M24,35.77A11.7,11.7,0,0,1,12.2,24a11.8,11.8,0,0,1,23.6,0A11.7,11.7,0,0,1,24,35.77"/><path class="cls-3" d="M32,23.57c0,.2-.2.4-.4.6-.2.4.2.4.2.6a3.4,3.4,0,0,1-.2,1.4,2.84,2.84,0,0,1-.4,1.2c-.2.4-.4.6-.6,1a2.84,2.84,0,0,1-.4,1.2,3.51,3.51,0,0,1-1,.8c-.4.2-.4.6-.8,1l-1.2.6c-.4.2-.8.2-1.2.4s-1,.2-1.4.4a3.4,3.4,0,0,0-1.4.2c-.4,0-.8.4-1.2.4s-.8-.4-1.2-.4a2.84,2.84,0,0,1-1.2-.4c-.4-.2-.8-.2-1.2-.4a1.33,1.33,0,0,1-1-.8c0-.4,1.2-.4,1.6-.6.6-.4,1.4-.2,2-.6.2-.2.4-.4.6-.4.2-.2.4-.2.8-.2.4-.2,1-.2,1.6-.4l1.2-.6a3.51,3.51,0,0,0,1-.8c.4-.2.6-.6,1-1l.6-1.2c.4-.4.8-.4.6-.8a3.4,3.4,0,0,1-.2-1.4c0-1,.2-2-.4-2.8a4.18,4.18,0,0,1-.8-1.2.73.73,0,0,1-.2-.6c0-.4.2-.4-.2-.4-.2,0-.4.2-.6.2h-.8a3.9,3.9,0,0,0-1.6.2,6.66,6.66,0,0,0-1.2.6c-.4.2-.6.6-1,.8-.2,0-.4.2-.6.4,0,.2-.2.4-.2.6a2.19,2.19,0,0,0,0,1.6c.2.8.8,2,1.8,1.6s-.8-1.8,0-2.2a1.71,1.71,0,0,1,1.4,0,2.89,2.89,0,0,1,1.4.4c.4.2.2.8.4,1.2a1.69,1.69,0,0,1,.4,1.4,2.46,2.46,0,0,1-1.4,2.2c-.4.2-1,0-1.4.2A2.84,2.84,0,0,1,22,28c-.2,0-.4-.2-.6-.2h-.6c-.4,0-.6-.6-1-.6,0-.4-.6-.8-.8-1-.4-.4-.6-.8-1-1.2a4.18,4.18,0,0,1-.8-1.2c-.2-.4,0-.8-.2-1.2,0-.2-.2-.4-.2-.6v-.8c0-.4-.2-.8-.2-1.2s0-.4.4-.4c.2-.2.4-.4.6-.4a1.15,1.15,0,0,1,.4-1.4c0-.2.2-.4.4-.6s.2-.4.4-.4c.4-.4.8-.6,1.2-1a2.84,2.84,0,0,1,2.8-.8c.6.2.8-.2,1.2-.2s.8.4,1.2.4c.4.2.8.2,1.2.4s1,.4,1.4.6c1,.4,1.2,1.2,1.8,1.8.4.6,1.6,1.4,1.2,2.2a1.2,1.2,0,0,0,.2.8,1.8,1.8,0,0,1,.2,1c.2.6.8,1.2.8,1.6"/><polygon points="11.08 44.38 11.08 43.2 11.48 43.2 11.48 41.29 10.48 41.29 10.48 43.2 10.92 43.2 10.92 44.38 7.68 44.38 7.68 43.2 8.1 43.2 8.1 39.12 7.68 39.12 7.68 37.94 10.92 37.94 10.92 39.12 10.48 39.12 10.48 39.99 11.48 39.99 11.48 39.12 11.08 39.12 11.08 37.94 14.28 37.94 14.28 39.12 13.86 39.12 13.86 43.2 14.28 43.2 14.28 44.38 11.08 44.38"/><path class="cls-4" d="M14,38.19v.68h-.42v4.58H14v.68h-2.7v-.68h.4V41h-1.5v2.41h.44v.68H7.93v-.68h.42V38.87H7.93v-.68h2.74v.68h-.44v1.37h1.5V38.87h-.4v-.68H14m.5-.5H7.43v1.68h.42V43H7.43v1.68h7.1V43h-.42V39.37h.42V37.69Zm-3.7,1.68h.4v.37h-.5v-.37Zm-.1,2.17h.5V43h-.5V41.54Z"/><path d="M17.07,44.52a4.85,4.85,0,0,1-2.74-1l-.2-.14,1.36-1.93.21.23A3.47,3.47,0,0,0,17.89,43c.3,0,.3-.16.3-.22s-.58-.4-1-.57c-1-.36-2.34-.85-2.34-2.25a2.32,2.32,0,0,1,2.52-2.19,3.23,3.23,0,0,1,1.43.4l.26-.35.95.65-1.26,1.89a2,2,0,0,1,1.18,1.9C19.89,43.62,18.43,44.52,17.07,44.52Zm-.33-5.3a.31.31,0,0,0-.23.15c0,.21.51.38,1,.54a7.77,7.77,0,0,1,.91.33l-.1-.09C17.85,39.74,17.29,39.22,16.74,39.22Z"/><path class="cls-4" d="M17.33,38.05a3,3,0,0,1,1.5.48l.25-.34.55.37-1,1.53c-.5-.45-1.17-1.12-1.87-1.12-.2,0-.48.19-.48.39,0,1,3.38.59,3.38,2.93,0,1.15-1.27,2-2.57,2a4.57,4.57,0,0,1-2.59-1l1-1.47a3.73,3.73,0,0,0,2.38,1.46c.28,0,.55-.13.55-.47,0-.92-3.38-.77-3.38-2.82a2.07,2.07,0,0,1,2.27-1.94M19,37.51l-.28.37a3.16,3.16,0,0,0-1.35-.33A2.56,2.56,0,0,0,14.56,40a2,2,0,0,0,.6,1.46l-.06.08-1,1.47-.29.41.41.29a5,5,0,0,0,2.88,1.07c1.47,0,3.07-1,3.07-2.48a2.22,2.22,0,0,0-1.08-2l1-1.47.28-.41-.41-.28-.55-.37-.4-.27Zm-1.15,5.27a1.83,1.83,0,0,1-.89-.36l.15,0a6.33,6.33,0,0,1,.74.31Z"/><path d="M20.08,44.38V43.2h.37V39.12h-.36V37.94h3.3c1.76,0,2.13.82,2.13,1.5a1.22,1.22,0,0,1-.65,1.18,1.8,1.8,0,0,1,1,1.67c0,1-.43,2.09-2.46,2.09ZM22.83,43c0,.3.05.3.18.3.36,0,.59-.17.59-1s-.34-1-.72-1h-.05Zm0-2.87c.4,0,.48-.2.48-.49s-.07-.43-.48-.46Z"/><path class="cls-4" d="M23.39,38.19c.84,0,1.88.19,1.88,1.25,0,.84-.55,1.07-1.29,1.17v0a1.66,1.66,0,0,1,1.66,1.66c0,1.41-1,1.84-2.21,1.84h-3.1v-.68h.37V38.87h-.36v-.68h3.05m-.81,2.15c.55,0,1-.11,1-.75s-.42-.72-1-.72v1.47M23,43.5c.75,0,.84-.67.84-1.27,0-.76-.26-1.21-1-1.21h-.3V43c0,.43.14.55.43.55m.38-5.81H19.84v1.68h.36V43h-.37v1.68h3.6c2.36,0,2.71-1.47,2.71-2.34a2,2,0,0,0-.82-1.69,1.5,1.5,0,0,0,.45-1.16c0-.65-.31-1.75-2.38-1.75ZM23.08,43V41.53c.15,0,.27.19.27.7,0,.66-.13.76-.27.77Z"/><path d="M28.89,44.52a2.92,2.92,0,0,1-3-3.13,3.62,3.62,0,0,1,3.72-3.59,3,3,0,0,1,1.55.54l.39-.26.64,1-2,1.29h1.33a.9.9,0,0,0,.24-.07l.22-.1.19.18.3.61-.17.13c-.13.1-.14.12-.14.27v3h-.86l-.31-.48A3.64,3.64,0,0,1,28.89,44.52Zm.23-5.39c-.74,0-.89.85-.89,1.57,0,1.36.56,2.1,1.66,2.2V41.52h-1V40.34h.86l-.45-.68.15-.14a.25.25,0,0,0,0-.16C29.47,39.13,29.16,39.13,29.12,39.13Z"/><path class="cls-4" d="M29.57,38.05a3,3,0,0,1,1.55.58l.32-.2.36.54-1.88,1.21-.33-.48a.47.47,0,0,0,.13-.34c0-.33-.3-.48-.6-.48C28,38.88,28,40.28,28,40.7c0,1.75.88,2.46,2.16,2.46V41.27h-1v-.68h2.35a1.21,1.21,0,0,0,.42-.13l.21.43a.49.49,0,0,0-.24.47v2.77h-.47L31,43.55a3.5,3.5,0,0,1-2.1.72,2.66,2.66,0,0,1-2.79-2.88,3.37,3.37,0,0,1,3.47-3.34m0-.5a3.86,3.86,0,0,0-4,3.84,3.16,3.16,0,0,0,3.29,3.38,3.8,3.8,0,0,0,2-.53l.11.17.15.22h1.24V41.32l0,0,.33-.24-.18-.37-.21-.43-.2-.41L31.7,40l-.1,0-.14.05H31l1.08-.7.43-.27-.28-.42-.37-.55-.27-.41-.41.27-.06,0a3,3,0,0,0-1.54-.49Zm-1,4.11a2.89,2.89,0,0,1-.13-1c0-.88.21-1.32.64-1.32a.22.22,0,0,1,.12,0l-.29.29.23.28.08.12h-.65v1.57Zm0,.11h1v.84a1.28,1.28,0,0,1-1-.84Z"/><polygon points="35.91 44.38 35.91 43.2 36.31 43.2 36.31 41.29 35.3 41.29 35.3 43.2 35.75 43.2 35.75 44.38 32.51 44.38 32.51 43.2 32.92 43.2 32.92 39.12 32.51 39.12 32.51 37.94 35.75 37.94 35.75 39.12 35.3 39.12 35.3 39.99 36.31 39.99 36.31 39.12 35.91 39.12 35.91 37.94 39.1 37.94 39.1 39.12 38.69 39.12 38.69 43.2 39.1 43.2 39.1 44.38 35.91 44.38"/><path class="cls-4" d="M38.85,38.19v.68h-.41v4.58h.41v.68H36.16v-.68h.4V41H35.05v2.41h.45v.68H32.76v-.68h.41V38.87h-.41v-.68H35.5v.68h-.45v1.37h1.51V38.87h-.4v-.68h2.69m.5-.5H32.26v1.68h.41V43h-.41v1.68h7.09V43h-.41V39.37h.41V37.69Zm-3.69,1.68h.4v.37h-.51v-.37Zm-.11,2.17h.51V43h-.51V41.54Z"/><text/></svg>