<?xml version="1.0" standalone="no"?>
<!DOCTYPE svg PUBLIC "-//W3C//DTD SVG 20010904//EN"
 "http://www.w3.org/TR/2001/REC-SVG-20010904/DTD/svg10.dtd">
<svg version="1.0" xmlns="http://www.w3.org/2000/svg"
 width="700.000000pt" height="700.000000pt" viewBox="0 0 700.000000 700.000000"
 preserveAspectRatio="xMidYMid meet">
<metadata>
Created by potrace 1.14, written by Peter Selinger 2001-2017
</metadata>
<g transform="translate(0.000000,700.000000) scale(0.100000,-0.100000)"
fill="#000000" stroke="none">
<path d="M3400 6543 c-52 -86 -99 -165 -105 -175 -10 -19 -393 -651 -497 -821
-45 -72 -67 -99 -86 -104 -39 -9 -205 -96 -312 -163 l-96 -59 -364 136 c-384
142 -420 155 -420 147 0 -3 12 -36 26 -72 14 -37 34 -89 44 -117 103 -276 142
-382 144 -390 2 -5 7 -19 11 -30 19 -48 53 -141 57 -155 5 -16 -1 -27 -77
-155 -26 -44 -71 -130 -101 -190 l-53 -110 -171 -105 c-93 -58 -185 -114 -203
-124 -17 -11 -54 -34 -82 -51 -27 -18 -174 -107 -325 -200 -427 -261 -490
-300 -490 -305 0 -3 114 -74 253 -158 138 -83 311 -188 382 -231 72 -43 238
-144 369 -222 210 -127 241 -148 253 -179 8 -19 25 -58 39 -86 13 -28 24 -54
24 -57 0 -3 36 -64 81 -136 44 -72 78 -135 75 -140 -6 -9 -38 -95 -91 -241
-13 -36 -62 -168 -109 -294 -47 -127 -84 -232 -82 -233 2 -2 34 8 72 22 38 15
179 67 314 116 135 50 274 102 308 115 35 14 71 26 80 26 10 0 69 -30 132 -67
63 -37 160 -89 215 -115 102 -50 143 -88 129 -124 -8 -20 -23 -20 -72 -1 -46
19 -176 25 -245 13 -141 -26 -257 -121 -296 -243 -29 -93 -13 -204 42 -282
l25 -35 -65 -97 c-35 -53 -67 -97 -71 -99 -9 -3 -8 480 1 495 4 6 16 10 26 8
11 -2 21 2 23 8 4 10 3 223 -1 237 -1 4 -947 4 -1019 1 -20 -1 -12 -246 8
-247 8 -1 20 -2 26 -3 8 -1 11 -77 11 -261 l0 -260 -28 0 -29 0 0 -124 0 -125
517 2 517 2 0 43 c0 23 2 41 5 39 3 -2 44 -22 91 -44 175 -85 344 -91 503 -18
59 27 145 98 166 139 8 14 17 26 20 26 3 0 6 -42 6 -92 l0 -93 195 -2 c107 -1
215 -2 240 -3 l45 0 55 -90 c30 -49 57 -90 60 -90 5 0 50 67 50 75 0 21 95
147 122 161 40 21 107 92 115 121 7 29 17 29 36 1 121 -183 390 -242 633 -138
26 11 48 19 48 18 1 -2 10 -15 19 -30 l16 -26 601 0 c330 0 601 3 601 6 1 4 3
60 3 125 l2 117 -28 0 c-32 0 -29 -25 -29 235 0 320 -3 291 28 291 l28 -1 1
122 2 123 -52 1 c-28 1 -88 1 -134 1 -76 0 -84 1 -92 21 -11 29 -34 92 -130
352 -44 121 -96 260 -115 309 l-34 90 37 50 c72 96 212 354 212 391 0 19 -11
12 463 298 117 70 219 132 227 138 8 5 98 59 200 120 321 193 370 224 370 229
0 4 -357 224 -415 256 -17 9 -314 189 -712 431 -104 63 -124 79 -133 108 -20
60 -77 169 -150 288 l-71 115 25 64 c81 207 267 718 262 718 -5 0 -385 -141
-601 -223 -88 -33 -167 -60 -175 -59 -8 0 -66 30 -129 67 -63 36 -160 88 -215
116 l-102 49 -313 513 c-173 281 -332 541 -355 577 -23 36 -57 91 -76 123 -19
31 -37 57 -40 57 -3 0 -48 -71 -100 -157z m1391 -4799 c50 -20 103 -40 118
-44 14 -5 55 -19 91 -33 227 -84 417 -155 430 -159 8 -3 -138 -6 -325 -6 -187
0 -352 -1 -367 -1 l-28 -1 0 -81 0 -82 -57 75 c-57 73 -58 74 -84 59 -23 -13
-31 -11 -95 14 -54 22 -86 28 -151 29 -69 1 -80 3 -73 16 5 8 45 30 89 48 45
19 143 71 219 117 75 46 138 84 140 84 1 1 43 -15 93 -35z m-1891 -478 c0 -8
4 -16 8 -18 4 -1 18 -19 30 -39 21 -35 22 -47 22 -258 0 -205 -1 -221 -18
-221 -15 0 -17 8 -14 74 6 118 -37 214 -125 279 l-32 23 57 87 c56 85 72 101
72 73z m1810 -7 c0 -6 7 -9 15 -5 40 15 45 -1 45 -133 l-1 -126 -41 80 c-22
44 -46 83 -52 87 -15 10 -68 7 -83 -4 -6 -5 -24 -8 -39 -6 -25 3 -20 8 57 59
90 61 99 65 99 48z m-3079 -19 c11 -25 -8 -47 -38 -46 -21 2 -29 8 -31 25 -2
13 1 27 7 31 19 11 56 6 62 -10z m3626 11 c7 -1 10 -13 9 -28 -3 -23 -8 -28
-30 -27 -44 2 -46 3 -46 28 0 25 14 35 40 30 8 -1 20 -3 27 -3z m-1020 -19
c-21 -23 -21 -36 -2 -52 25 -21 17 -30 -25 -30 l-40 0 -1 -107 c-1 -60 -4 -97
-8 -84 -8 29 -6 156 3 205 8 44 42 86 68 86 20 0 20 -1 5 -18z m-2042 -90 c0
-44 6 -79 17 -101 13 -24 14 -30 3 -21 -30 25 -51 136 -33 173 5 9 10 17 11
17 1 0 2 -30 2 -68z m2575 -282 c0 -129 0 -130 -23 -130 -23 0 -23 1 -22 116
1 102 3 118 20 130 10 8 20 14 22 14 2 0 3 -58 3 -130z m-3138 78 c3 -11 2
-171 -1 -200 -1 -5 -17 -8 -36 -8 l-35 0 0 103 c0 57 3 107 7 110 11 12 61 8
65 -5z m3632 -98 l1 -105 -38 -3 -37 -3 0 111 0 111 37 -3 37 -3 0 -105z
m-948 12 c1 -29 -3 -55 -8 -58 -23 -15 -138 82 -124 104 3 5 33 8 68 7 l63 -1
1 -52z m-1825 -49 c13 -16 12 -17 -3 -4 -17 13 -22 21 -14 21 2 0 10 -8 17
-17z m89 -41 c3 -2 -6 -1 -20 3 -14 4 -32 14 -40 22 -11 10 -5 9 20 -3 19 -9
37 -19 40 -22z"/>
</g>
</svg>
