<svg id="Layer_1" data-name="Layer 1" xmlns="http://www.w3.org/2000/svg" viewBox="0 0 100 100"><title>icon_cardset_classic</title><path d="M43,40.37a3.23,3.23,0,0,0,0,3.54c1.15,2.06.81,6.93-1.6,7.08s-8.3-1.63-9.63-5.31A45.72,45.72,0,0,1,29.86,38S30.6,36.1,31,34.62s2.21-2.06,3.39-2.36,6-3.09,9.22-4.42,12.46.44,15.11,2.65,7.08,6.93,8.26,13,.44,14.3-.74,17.1A34.44,34.44,0,0,1,61,68.38c-.59.45-4.67,5.31-9.63,5.61s-6.88,2.94-6.88,2.94a35.78,35.78,0,0,1-8.07,0c-5.49-.44-9.92-1.91-10.65-2.65s-4.58-2.8-4.58-.44a18.81,18.81,0,0,0,.69,5.75c.49,1.47,2.41,3,3,3.39a25.25,25.25,0,0,0,8.87,3.54,60.45,60.45,0,0,0,6.91,1.32c3.53.59,6.78,1.18,11.35,0s5.75-1.91,7.22-2.06a37,37,0,0,0,9.13-3.54A11,11,0,0,0,71,79.74c.29-.59,0-3.25,1.77-3.84s5.66-3.68,8-9.73,3.8-12.38,3.95-14.89a107.6,107.6,0,0,0-1-14.59c-.45-1.48-1.33-3.1-1.63-4.28s-3.39-1.92-4.42-3.69-.74-3.39-1.33-4.12A31.86,31.86,0,0,0,60.82,13.69c-9.43-2.81-4.42-1-6.34-1.33a20.28,20.28,0,0,0-3.14-.28s-3.93,1-5,.87S43.62,11.47,43,11.47s-1.49.3-4.52,1.18-10.69,4.43-11.87,5.9S23.23,22.09,21.16,25,19,29.9,17,30.79s-1.92,4.86-1.63,6.63a94.54,94.54,0,0,0,1.92,9.73c.74,2.21-.55,2.07,1,4s.54,3.1,3.54,5.16S29.27,63.52,33.7,64s9.58.74,11.79.15,7.37-2.66,8.85-4.43,4.27-8.4,2.95-11.49S51.54,40.67,48,39.78,43.47,39.22,43,40.37Z"></path></svg>